<svg xmlns="http://www.w3.org/2000/svg" viewBox="0 0 1400 560" font-family="Georgia, 'Times New Roman', serif">
  <defs>
    <linearGradient id="oro" x1="0" y1="0" x2="1" y2="0">
      <stop offset="0" stop-color="#E8D5A4"/>
      <stop offset=".5" stop-color="#C9A96B"/>
      <stop offset="1" stop-color="#8F6D3C"/>
    </linearGradient>
    <filter id="glow" x="-20%" y="-20%" width="140%" height="140%">
      <feGaussianBlur stdDeviation="4"/>
    </filter>
    <path id="linea" fill="none" d="
      M -20 410
      L 104 410
      a 22 22 0 1 1 0.6 0
      L 296 410
      a 22 22 0 1 1 0.6 0
      L 360 410
      C 374 410 380 398 380 382
      C 380 352 372 338 350 334
      C 342 332 338 330 334 318
      C 328 292 318 262 296 256
      C 288 254 280 252 268 252
      L 158 252
      C 128 252 114 264 111 290
      L 106 396
      C 105 404 102 410 92 410
      L 560 410
      L 596 410
      a 22 22 0 1 1 0.6 0
      L 788 410
      a 22 22 0 1 1 0.6 0
      L 856 410
      C 872 410 879 400 877 386
      C 874 362 858 352 830 348
      C 806 344 794 340 782 320
      C 770 300 752 292 722 290
      L 672 290
      C 634 292 606 302 590 328
      C 581 342 578 366 578 392
      C 578 402 574 410 564 410
      L 1040 410
      L 1076 410
      a 22 22 0 1 1 0.6 0
      L 1268 410
      a 22 22 0 1 1 0.6 0
      L 1334 410
      C 1350 410 1357 398 1355 380
      C 1352 354 1340 344 1318 340
      C 1310 338 1304 336 1300 328
      C 1292 302 1282 294 1256 292
      L 1152 288
      C 1114 288 1092 298 1078 320
      C 1067 336 1063 364 1063 390
      C 1063 400 1059 410 1049 410
      L 1420 410"/>
  </defs>

  <rect width="1400" height="560" fill="#12100D"/>

  <!-- filo di terra, appena percettibile, sotto tutto -->
  <line x1="0" y1="410" x2="1400" y2="410" stroke="#B08D4F" stroke-width="0.4" opacity="0.18"/>

  <!-- bagliore -->
  <use href="#linea" stroke="#C9A96B" stroke-width="6" opacity="0.28" filter="url(#glow)"
       stroke-linecap="round" stroke-linejoin="round"/>
  <!-- la linea -->
  <use href="#linea" stroke="url(#oro)" stroke-width="3" stroke-linecap="round" stroke-linejoin="round"/>

  <!-- fanali: tre punti di luce -->
  <circle cx="371" cy="356" r="3.2" fill="#F4E3B8"/>
  <circle cx="867" cy="368" r="3.2" fill="#F4E3B8"/>
  <circle cx="1346" cy="362" r="3.2" fill="#F4E3B8"/>

  <!-- etichette segmento -->
  <g fill="#B08D4F" font-family="Helvetica, Arial, sans-serif" font-size="19" letter-spacing="6" text-anchor="middle" opacity="0.9">
    <text x="235" y="492">ARTIGIANI</text>
    <text x="718" y="492">AGENTI</text>
    <text x="1205" y="492">AZIENDE</text>
  </g>

  <!-- didascalia concetto -->
  <g text-anchor="middle">
    <text x="700" y="80" fill="url(#oro)" font-size="34" letter-spacing="10">UNA SOLA LINEA</text>
    <text x="700" y="112" fill="#F2EEE6" opacity="0.6" font-family="Helvetica, Arial, sans-serif" font-size="16" letter-spacing="3">un canone, tutto incluso — la stessa strada per ogni mestiere</text>
  </g>
</svg>
